<svg width="101" height="100" viewBox="0 0 101 100" fill="none" xmlns="http://www.w3.org/2000/svg">
<path d="M20.8191 27.8676L10.6545 38.0281C10.245 38.4367 10.0051 38.985 9.98311 39.5631C9.96108 40.1411 10.1585 40.7062 10.5357 41.1447L48.867 85.8427C49.0821 86.0942 49.3492 86.2962 49.6499 86.4347C49.9505 86.5732 50.2776 86.6449 50.6086 86.6449C50.9397 86.6449 51.2668 86.5732 51.5674 86.4347C51.8681 86.2962 52.1352 86.0942 52.3503 85.8427L90.6795 41.1447C91.0567 40.7062 91.2541 40.1411 91.2321 39.5631C91.2101 38.985 90.9702 38.4367 90.5607 38.0281L75.2045 22.676H32.9107M11.0253 39.6551H91.2336M50.192 85.176L29.7753 39.3426L33.942 31.0093M33.942 31.0093L50.6086 23.301L67.2753 31.0093M33.942 31.0093L30.2878 27.6489M51.0253 85.176L71.442 39.3426L67.2753 31.0093M67.2753 31.0093L75.2086 23.7176M25.5878 13.1885L27.9941 20.5926H35.7795L29.4795 25.1697L31.8857 32.576L25.5857 27.9989L19.2857 32.576L21.692 25.1697L15.3961 20.5926H23.1816L25.5878 13.1885ZM73.2024 68.3968L75.6086 75.801H83.3941L77.0961 80.3781L79.5024 87.7822L73.2024 83.2052L66.9024 87.7822L69.3086 80.3781L63.0107 75.801H70.7961L73.2024 68.3968Z" stroke="white" stroke-width="2" stroke-linecap="round" stroke-linejoin="round"/>
</svg>
