<svg width="101" height="100" viewBox="0 0 101 100" fill="none" xmlns="http://www.w3.org/2000/svg">
<path d="M30.8159 61.3236L15.7991 70.0154C12.4593 64.037 10.7203 57.2975 10.7504 50.4496C10.7504 49.8209 10.7689 49.2106 10.8059 48.6188L28.1528 49.1921C28.1158 49.6544 28.0973 50.1353 28.0973 50.6161C28.0973 54.4996 29.0775 58.1428 30.8159 61.3236ZM47.1642 72.7708L43.336 89.729C35.8092 88.3605 29.022 84.8653 23.6219 79.8907L35.4208 67.1859C38.6202 70.1078 42.6703 72.1051 47.1642 72.7708ZM77.3827 79.9277C71.6205 85.2105 64.4289 88.6776 56.7069 89.8955L54.1548 72.7338C58.5562 72.0126 62.5139 69.9969 65.6578 67.1119L77.3827 79.9277ZM90.2727 50.801C90.2542 58.0503 88.2754 64.8373 84.8541 70.6626L69.8188 61.9709C71.7791 58.6421 72.9072 54.777 72.9072 50.6161C72.9072 50.1353 72.8888 49.6544 72.8518 49.1921L90.1802 47.9346C90.2542 48.8777 90.2727 49.8209 90.2727 50.801ZM87.6281 36.3394L71.4647 42.6825C69.8588 38.4535 67.0088 34.8105 63.2906 32.2339L73.0922 17.8833C79.6204 22.3956 84.7431 28.8127 87.6281 36.3394ZM62.3289 12.6312L57.1877 29.238C55.0794 28.5723 52.8417 28.2209 50.5115 28.2209C48.1814 28.2209 45.9436 28.5723 43.8354 29.238L38.6942 12.6497C42.4853 11.4661 46.5169 10.8374 50.6965 10.8559C54.7466 10.8744 58.6487 11.5031 62.3289 12.6312Z" stroke="white" stroke-width="2" stroke-linecap="round" stroke-linejoin="round"/>
<path d="M50.506 63.565C57.6556 63.565 63.4515 57.7692 63.4515 50.6198C63.4515 43.4703 57.6556 37.6746 50.506 37.6746C43.3564 37.6746 37.5605 43.4703 37.5605 50.6198C37.5605 57.7692 43.3564 63.565 50.506 63.565Z" stroke="white" stroke-width="2" stroke-linecap="round" stroke-linejoin="round"/>
<path d="M36.4564 33.1771C33.5208 35.5358 31.2251 38.5946 29.7803 42.0723L13.6169 35.7476C16.3539 28.9791 20.9033 23.1353 26.6548 18.8079L36.4564 33.1771Z" stroke="white" stroke-width="2" stroke-linecap="round" stroke-linejoin="round"/>
<path d="M50.506 58.017C54.5915 58.017 57.9034 54.7052 57.9034 50.6198C57.9034 46.5344 54.5915 43.2225 50.506 43.2225C46.4205 43.2225 43.1086 46.5344 43.1086 50.6198C43.1086 54.7052 46.4205 58.017 50.506 58.017Z" stroke="white" stroke-width="2" stroke-linecap="round" stroke-linejoin="round"/>
<path d="M21.2973 32.7943C22.5404 30.7658 23.9907 28.8719 25.6248 27.1428L29.255 32.4651C28.5326 33.3108 27.8606 34.196 27.2392 35.1207L21.2973 32.7943Z" stroke="white" stroke-width="2" stroke-linecap="round" stroke-linejoin="round"/>
</svg>
