<svg width="48" height="48" viewBox="0 0 48 48" fill="none" xmlns="http://www.w3.org/2000/svg">
<path d="M30.98 23.9996H16.98M23.98 30.9996V16.9996M39.23 25.9996C39.3167 25.3362 39.3633 24.6696 39.37 23.9996C39.3627 23.3307 39.316 22.6629 39.23 21.9996L43.56 18.6096C43.7555 18.4602 43.8891 18.244 43.9353 18.0023C43.9814 17.7607 43.9368 17.5104 43.81 17.2996L39.71 10.1896C39.5912 9.97632 39.3986 9.81385 39.1683 9.7328C38.9381 9.65176 38.6861 9.65772 38.46 9.74958L33.35 11.8096C32.2866 10.9982 31.1238 10.3261 29.89 9.80958L29.12 4.37958C29.086 4.1393 28.9659 3.91957 28.7819 3.76135C28.5979 3.60312 28.3626 3.51719 28.12 3.51958H19.9C19.6573 3.51719 19.4221 3.60312 19.2381 3.76135C19.0541 3.91957 18.934 4.1393 18.9 4.37958L18.13 9.80958C16.8947 10.3231 15.7316 10.9955 14.67 11.8096L9.53999 9.74958C9.31384 9.65772 9.0619 9.65176 8.83165 9.7328C8.6014 9.81385 8.40874 9.97632 8.28999 10.1896L4.18999 17.2996C4.0632 17.5104 4.0186 17.7607 4.06473 18.0023C4.11085 18.244 4.24446 18.4602 4.43999 18.6096L8.75999 21.9996C8.67402 22.6629 8.62727 23.3307 8.61999 23.9996C8.62666 24.6696 8.67333 25.3362 8.75999 25.9996L4.43999 29.3896C4.24446 29.5389 4.11085 29.7551 4.06473 29.9968C4.0186 30.2385 4.0632 30.4887 4.18999 30.6996L8.28999 37.8096C8.40874 38.0228 8.6014 38.1853 8.83165 38.2664C9.0619 38.3474 9.31384 38.3414 9.53999 38.2496L14.65 36.1896C15.7134 37.0009 16.8762 37.673 18.11 38.1896L18.88 43.6196C18.914 43.8599 19.0341 44.0796 19.2181 44.2378C19.4021 44.396 19.6373 44.482 19.88 44.4796H28.08C28.3226 44.482 28.5579 44.396 28.7419 44.2378C28.9259 44.0796 29.046 43.8599 29.08 43.6196L29.85 38.1896C31.0853 37.676 32.2484 37.0037 33.31 36.1896L38.42 38.2496C38.6461 38.3414 38.8981 38.3474 39.1283 38.2664C39.3586 38.1853 39.5512 38.0228 39.67 37.8096L43.77 30.6996C43.8968 30.4887 43.9414 30.2385 43.8953 29.9968C43.8491 29.7551 43.7155 29.5389 43.52 29.3896L39.23 25.9996Z" stroke="#222222" stroke-width="1.2" stroke-linecap="round" stroke-linejoin="round"/>
</svg>
