<svg width="101" height="100" viewBox="0 0 101 100" fill="none" xmlns="http://www.w3.org/2000/svg">
<path d="M35.2854 36.2178V53.7553L50.4688 62.5261M50.4688 62.5261L65.6521 53.7553V36.2178M50.4688 62.5261V44.9865M50.4688 27.449L65.6521 36.2199L50.4688 44.9845L35.2854 36.2157L50.4688 27.449ZM85.6875 44.4095C85.6879 38.0331 83.9572 31.7762 80.68 26.3064C77.4029 20.8366 72.7022 16.3592 67.0796 13.3518C61.4569 10.3444 55.1233 8.91986 48.7545 9.23023C42.3857 9.5406 36.2206 11.5742 30.917 15.1141C25.6135 18.6539 21.3704 23.5672 18.6406 29.3297C15.9108 35.0923 14.7967 41.4878 15.4171 47.8339C16.0375 54.18 18.3692 60.2387 22.1633 65.3634C25.9575 70.4882 31.0717 74.4867 36.9604 76.9324L50.4688 90.4407L63.9771 76.9324C70.4032 74.2615 75.8943 69.7473 79.7577 63.9592C83.6211 58.1711 85.6859 51.3685 85.6875 44.4095Z" stroke="white" stroke-width="2" stroke-linecap="round" stroke-linejoin="round"/>
</svg>
