<svg width="42" height="34" viewBox="0 0 42 34" fill="none" xmlns="http://www.w3.org/2000/svg">
<path d="M35.6667 28C35.6667 29.3261 35.1399 30.5978 34.2022 31.5355C33.2645 32.4732 31.9927 33 30.6667 33C29.3406 33 28.0688 32.4732 27.1311 31.5355C26.1934 30.5978 25.6667 29.3261 25.6667 28M35.6667 28C35.6667 26.6739 35.1399 25.4021 34.2022 24.4645C33.2645 23.5268 31.9927 23 30.6667 23C29.3406 23 28.0688 23.5268 27.1311 24.4645C26.1934 25.4021 25.6667 26.6739 25.6667 28M35.6667 28H37.1927C37.6327 28 37.8527 28 38.0367 27.976C38.6988 27.8935 39.3145 27.5927 39.7864 27.1211C40.2584 26.6495 40.5597 26.034 40.6427 25.372C40.6667 25.186 40.6667 24.966 40.6667 24.526V19C40.6667 15.5522 39.297 12.2456 36.859 9.80761C34.4211 7.36964 31.1145 6 27.6667 6M25.6667 28H15.6667M15.6667 28C15.6667 29.3261 15.1399 30.5978 14.2022 31.5355C13.2645 32.4732 11.9927 33 10.6667 33C9.34058 33 8.06881 32.4732 7.13112 31.5355C6.19344 30.5978 5.66666 29.3261 5.66666 28M15.6667 28C15.6667 26.6739 15.1399 25.4021 14.2022 24.4645C13.2645 23.5268 11.9927 23 10.6667 23C9.34058 23 8.06881 23.5268 7.13112 24.4645C6.19344 25.4021 5.66666 26.6739 5.66666 28M5.66666 28C3.79666 28 2.86266 28 2.16666 27.598C1.71064 27.3347 1.33195 26.956 1.06866 26.5C0.666656 25.804 0.666656 24.87 0.666656 23V18.5M0.666656 1H20.6667C23.4947 1 24.9087 1 25.7867 1.88C26.6667 2.756 26.6667 4.17 26.6667 7V24M0.666656 7H12.6667M0.666656 13H8.66666" stroke="#222222" stroke-width="1.2" stroke-linecap="round" stroke-linejoin="round"/>
</svg>
