<svg width="49" height="48" viewBox="0 0 49 48" fill="none" xmlns="http://www.w3.org/2000/svg">
<path d="M7.83331 30.973V5.67414C7.83331 5.36274 7.96369 5.06409 8.19577 4.8439C8.42784 4.6237 8.74261 4.5 9.07081 4.5H39.5958C39.924 4.5 40.2388 4.6237 40.4709 4.8439C40.7029 5.06409 40.8333 5.36274 40.8333 5.67414V30.973C40.8335 32.4268 40.4069 33.8518 39.6015 35.0885C38.796 36.3252 37.6435 37.3246 36.2731 37.9748L24.8881 43.3759C24.7162 43.4575 24.5266 43.5 24.3343 43.5C24.1421 43.5 23.9525 43.4575 23.7806 43.3759L12.3956 37.9748C11.0248 37.3249 9.87185 36.3256 9.06604 35.0889C8.26022 33.8522 7.83337 32.427 7.83331 30.973Z" stroke="#222222" stroke-width="1.2" stroke-linecap="round" stroke-linejoin="round"/>
</svg>
