<svg width="49" height="48" viewBox="0 0 49 48" fill="none" xmlns="http://www.w3.org/2000/svg">
<path d="M13.1667 39.5H8.16667C7.06667 39.5 6.16667 38.6 6.16667 37.5V10.5C6.16667 9.4 7.06667 8.5 8.16667 8.5H13.1667M35.1667 8.5H41.1667C42.2667 8.5 43.1667 9.4 43.1667 10.5V37.5C43.1667 38.6 42.2667 39.5 41.1667 39.5H35.1667M33.1667 5.5H15.1667C14.6362 5.5 14.1275 5.71071 13.7525 6.08579C13.3774 6.46086 13.1667 6.96957 13.1667 7.5V40.5C13.1667 41.0304 13.3774 41.5391 13.7525 41.9142C14.1275 42.2893 14.6362 42.5 15.1667 42.5H33.1667C33.6971 42.5 34.2058 42.2893 34.5809 41.9142C34.956 41.5391 35.1667 41.0304 35.1667 40.5V7.5C35.1667 6.96957 34.956 6.46086 34.5809 6.08579C34.2058 5.71071 33.6971 5.5 33.1667 5.5ZM20.1667 18.03L29.1667 24.03L20.1667 30V18V18.03Z" stroke="#222222" stroke-width="1.2" stroke-linecap="round" stroke-linejoin="round"/>
</svg>
