<svg width="48" height="48" viewBox="0 0 48 48" fill="none" xmlns="http://www.w3.org/2000/svg">
<path d="M16.48 19.423C16.48 19.7544 16.7486 20.023 17.08 20.023C17.4114 20.023 17.68 19.7544 17.68 19.423H16.48ZM24 12.502V13.102V12.502ZM30.92 19.422H31.52H30.92ZM28.893 24.316L28.5177 23.8479L28.5175 23.848L28.893 24.316ZM23.375 30.276C23.375 30.6074 23.6436 30.876 23.975 30.876C24.3064 30.876 24.575 30.6074 24.575 30.276H23.375ZM24.75 34.748H24.15C24.15 34.8308 24.0828 34.898 24 34.898V35.498V36.098C24.7456 36.098 25.35 35.4936 25.35 34.748H24.75ZM24 35.498V34.898C23.9172 34.898 23.85 34.8308 23.85 34.748H23.25H22.65C22.65 35.4936 23.2544 36.098 24 36.098V35.498ZM23.25 34.748H23.85C23.85 34.6652 23.9172 34.598 24 34.598V33.998V33.398C23.2544 33.398 22.65 34.0024 22.65 34.748H23.25ZM24 33.998V34.598C24.0828 34.598 24.15 34.6652 24.15 34.748H24.75H25.35C25.35 34.0024 24.7456 33.398 24 33.398V33.998ZM17.08 19.423H17.68C17.68 17.6774 18.3862 16.0983 19.5313 14.9533L19.107 14.529L18.6827 14.1047C17.3218 15.4657 16.48 17.3466 16.48 19.423H17.08ZM19.107 14.529L19.5313 14.9533C20.6764 13.8082 22.2545 13.102 24 13.102V12.502V11.902C21.9235 11.902 20.0436 12.7438 18.6827 14.1047L19.107 14.529ZM24 12.502V13.102C25.6762 13.102 27.2837 13.7679 28.4689 14.9531L28.8932 14.5288L29.3174 14.1046C27.9072 12.6943 25.9944 11.902 24 11.902V12.502ZM28.8932 14.5288L28.4689 14.9531C29.6541 16.1383 30.32 17.7458 30.32 19.422H30.92H31.52C31.52 17.4276 30.7277 15.5148 29.3174 14.1046L28.8932 14.5288ZM30.92 19.422H30.32C30.32 21.2201 29.7119 22.8904 28.5177 23.8479L28.893 24.316L29.2683 24.7841C30.8381 23.5256 31.52 21.4479 31.52 19.422H30.92ZM28.893 24.316L28.5175 23.848C28.1741 24.1235 27.7179 24.4349 27.1677 24.8347C26.6332 25.2231 26.0399 25.6745 25.4877 26.1898C24.3965 27.208 23.375 28.5599 23.375 30.276H23.975H24.575C24.575 29.0631 25.2965 28.0095 26.3063 27.0672C26.8046 26.6022 27.3513 26.1847 27.8731 25.8055C28.3793 25.4377 28.8959 25.083 29.2685 24.784L28.893 24.316ZM45.5 24H44.9C44.9 35.5428 35.5428 44.9 24 44.9V45.5V46.1C36.2055 46.1 46.1 36.2055 46.1 24H45.5ZM24 45.5V44.9C12.4572 44.9 3.1 35.5428 3.1 24H2.5H1.9C1.9 36.2055 11.7945 46.1 24 46.1V45.5ZM2.5 24H3.1C3.1 12.4572 12.4572 3.1 24 3.1V2.5V1.9C11.7945 1.9 1.9 11.7945 1.9 24H2.5ZM24 2.5V3.1C35.5428 3.1 44.9 12.4572 44.9 24H45.5H46.1C46.1 11.7945 36.2055 1.9 24 1.9V2.5Z" fill="#222222"/>
</svg>
