<svg width="49" height="48" viewBox="0 0 49 48" fill="none" xmlns="http://www.w3.org/2000/svg">
<path d="M33.3332 42.4996H38.8332C39.8941 42.4996 40.9115 42.0781 41.6617 41.328C42.4118 40.5778 42.8332 39.5604 42.8332 38.4996V34.4156M5.83324 36.4156V38.4996C5.83324 39.5604 6.25467 40.5778 7.00482 41.328C7.75496 42.0781 8.77238 42.4996 9.83324 42.4996H17.5212M17.5212 5.49957H9.83324C8.77238 5.49957 7.75496 5.921 7.00482 6.67114C6.25467 7.42129 5.83324 8.4387 5.83324 9.49957V12.6716M31.1462 5.49957H38.8332C39.8941 5.49957 40.9115 5.921 41.6617 6.67114C42.4118 7.42129 42.8332 8.4387 42.8332 9.49957V12.6716M34.5842 19.1776L21.0642 11.2586M36.3392 24.5916L19.1062 14.6416M34.3552 28.0446L17.1232 18.0936M43.6112 15.3466L23.1652 3.54057C22.7635 3.30895 22.2863 3.24625 21.8383 3.36625C21.3904 3.48625 21.0084 3.77913 20.7762 4.18057L5.47624 30.6886C5.24431 31.0904 5.18143 31.5679 5.30145 32.0161C5.42146 32.4642 5.71454 32.8464 6.11624 33.0786L26.5612 44.8846C26.9631 45.1165 27.4406 45.1794 27.8887 45.0594C28.3369 44.9394 28.7191 44.6463 28.9512 44.2446L44.2522 17.7366C44.4842 17.3347 44.5471 16.8572 44.427 16.4091C44.307 15.9609 44.013 15.5787 43.6112 15.3466Z" stroke="#222222" stroke-width="1.2" stroke-linecap="round" stroke-linejoin="round"/>
</svg>
