<svg width="116" height="50" viewBox="0 0 116 50" fill="none" xmlns="http://www.w3.org/2000/svg">
<path d="M22.9513 48.9262H20.1091V44.7444H22.9513V45.2661H20.7132V48.4067H22.9513V48.9283V48.9262ZM22.8411 47.0558H20.6538V46.5363H22.8411V47.0558Z" fill="#373330"/>
<path d="M25.4253 48.9262H24.834V44.7444H25.4825L27.8966 48.3176H27.7101V44.7444H28.3014V48.9262H27.6529L25.2324 45.3509H25.4253V48.9262Z" fill="#373330"/>
<path d="M33.224 48.9262H30.3818V44.7444H33.224V45.2661H30.9859V48.4067H33.224V48.9283V48.9262ZM33.1117 47.0558H30.9244V46.5363H33.1117V47.0558Z" fill="#373330"/>
<path d="M35.7211 48.9262H35.1191V44.7444H36.7744C37.0585 44.7444 37.3086 44.7953 37.5226 44.8971C37.7367 44.9989 37.9041 45.1409 38.0249 45.3233C38.1457 45.5057 38.2072 45.7199 38.2072 45.9616C38.2072 46.2034 38.1457 46.4218 38.0249 46.6041C37.9041 46.7865 37.7367 46.9307 37.5226 47.0304C37.3086 47.1322 37.0585 47.1831 36.7744 47.1831H35.6638V46.6614H36.7744C37.0288 46.6614 37.2259 46.5999 37.37 46.4748C37.5141 46.3497 37.5862 46.1779 37.5862 45.9595C37.5862 45.7411 37.5141 45.5757 37.37 45.4505C37.2259 45.3254 37.0267 45.2639 36.7744 45.2639H35.7232V48.9262H35.7211ZM38.6205 48.9262H37.866L36.3166 46.9774H37.0118L38.6205 48.9262Z" fill="#373330"/>
<path d="M43.9867 48.9263H43.4186V48.3304L43.4886 48.3538C43.3487 48.5637 43.1558 48.7291 42.9121 48.8457C42.6684 48.9624 42.3971 49.0218 42.0961 49.0218C41.7951 49.0218 41.5026 48.9687 41.2398 48.8606C40.977 48.7524 40.7481 48.6019 40.5531 48.4047C40.3581 48.2074 40.2076 47.9763 40.0996 47.7091C39.9915 47.4419 39.9385 47.1514 39.9385 46.8354C39.9385 46.5194 39.9936 46.2353 40.1017 45.9702C40.2098 45.7051 40.3645 45.474 40.5595 45.2768C40.7566 45.0796 40.9876 44.9269 41.2547 44.8166C41.5217 44.7085 41.8121 44.6533 42.1236 44.6533C42.4903 44.6533 42.821 44.7254 43.1156 44.8675C43.4102 45.0096 43.6497 45.2026 43.8383 45.4443L43.4229 45.8536C43.283 45.65 43.1028 45.491 42.8845 45.3743C42.6662 45.2577 42.4119 45.1983 42.1236 45.1983C41.8354 45.1983 41.5599 45.2704 41.3225 45.4125C41.0851 45.5546 40.8986 45.7497 40.7672 45.9935C40.6337 46.2395 40.568 46.5194 40.568 46.8354C40.568 47.1514 40.6358 47.4334 40.7693 47.6837C40.9028 47.9339 41.0893 48.129 41.3267 48.2711C41.5641 48.4131 41.8375 48.4852 42.1448 48.4852C42.4522 48.4852 42.7192 48.4195 42.9545 48.2859C43.1897 48.1544 43.3593 47.9742 43.461 47.7473L43.408 47.9699V47.2086H42.0919V46.6997H43.9803V48.9284L43.9867 48.9263Z" fill="#373330"/>
<path d="M47.5938 48.9262H46.9855V47.1534L45.4128 44.7444H46.1207L47.3712 46.7441H47.2186L48.4691 44.7444H49.1643L47.5917 47.1597V48.9262H47.5938Z" fill="#373330"/>
<path d="M55.2535 49.0218C54.9334 49.0218 54.641 48.9666 54.3739 48.8585C54.1068 48.7503 53.8737 48.5955 53.6745 48.4004C53.4752 48.2053 53.3226 47.9721 53.2145 47.7049C53.1065 47.4377 53.0535 47.1471 53.0535 46.8354C53.0535 46.5237 53.1065 46.2353 53.2145 45.9702C53.3226 45.7051 53.4752 45.474 53.6745 45.2768C53.8737 45.0796 54.1068 44.9269 54.3739 44.8166C54.641 44.7085 54.9334 44.6533 55.2535 44.6533C55.5735 44.6533 55.8596 44.7085 56.1267 44.8166C56.3938 44.9269 56.6269 45.0796 56.8261 45.2768C57.0254 45.474 57.178 45.7051 57.2882 45.9702C57.3963 46.2353 57.4514 46.5237 57.4514 46.8354C57.4514 47.1471 57.3963 47.4377 57.2882 47.7049C57.178 47.9721 57.0254 48.2032 56.8261 48.4004C56.6269 48.5976 56.3938 48.7503 56.1267 48.8585C55.8596 48.9687 55.5693 49.0218 55.2535 49.0218ZM55.2535 48.4768C55.5608 48.4768 55.8321 48.4068 56.0652 48.2668C56.2984 48.1269 56.4828 47.9318 56.6184 47.6858C56.7519 47.4377 56.8198 47.1535 56.8198 46.8354C56.8198 46.5173 56.7519 46.2332 56.6184 45.9872C56.4849 45.7412 56.3005 45.5482 56.0652 45.4083C55.8321 45.2683 55.5608 45.1983 55.2535 45.1983C54.9462 45.1983 54.6791 45.2683 54.4417 45.4083C54.2043 45.5482 54.0178 45.7412 53.8864 45.9872C53.7529 46.2332 53.6872 46.5152 53.6872 46.8354C53.6872 47.1556 53.7529 47.4398 53.8864 47.6858C54.0178 47.9339 54.2043 48.1269 54.4417 48.2668C54.6791 48.4068 54.9504 48.4768 55.2535 48.4768Z" fill="#373330"/>
<path d="M59.9948 48.9262H59.3928V44.7444H62.1185V45.2661H59.9969V48.9283L59.9948 48.9262ZM62.0061 47.0558H59.9354V46.5363H62.0061V47.0558Z" fill="#373330"/>
<path d="M66.0296 48.2434L66.4513 47.8341C66.5637 47.9677 66.6929 48.0822 66.8392 48.1819C66.9854 48.2816 67.1444 48.3558 67.3161 48.4067C67.4877 48.4576 67.6679 48.483 67.8608 48.483C68.0706 48.483 68.255 48.4533 68.414 48.3961C68.5729 48.3388 68.6958 48.254 68.7849 48.1437C68.8739 48.0356 68.9184 47.9084 68.9184 47.7642C68.9184 47.5733 68.8336 47.4227 68.6662 47.3103C68.4987 47.198 68.2062 47.1131 67.7887 47.0495C67.4093 46.9944 67.1062 46.918 66.8731 46.8162C66.6421 46.7145 66.4725 46.5893 66.3644 46.4388C66.2563 46.2882 66.2033 46.108 66.2033 45.898C66.2033 45.652 66.2733 45.4357 66.4111 45.2491C66.5488 45.0625 66.7375 44.9162 66.9791 44.8102C67.2186 44.7041 67.4941 44.6511 67.8057 44.6511C68.1681 44.6511 68.4881 44.7211 68.7637 44.8589C69.0392 44.9968 69.2829 45.1855 69.4885 45.423L69.0667 45.8323C68.9099 45.633 68.7319 45.476 68.5284 45.3594C68.3249 45.2428 68.0854 45.1834 67.8099 45.1834C67.5344 45.1834 67.2864 45.2449 67.102 45.37C66.9197 45.4951 66.8265 45.6626 66.8265 45.8726C66.8265 45.9829 66.8604 46.074 66.9282 46.1504C66.996 46.2267 67.1084 46.2903 67.2673 46.3434C67.4242 46.3964 67.634 46.443 67.8947 46.4876C68.2847 46.5469 68.5983 46.6296 68.84 46.7357C69.0795 46.8438 69.2554 46.9795 69.3656 47.1449C69.4758 47.3103 69.533 47.5097 69.533 47.7387C69.533 47.9953 69.461 48.2201 69.319 48.4109C69.177 48.6018 68.9799 48.7502 68.7255 48.8584C68.4712 48.9665 68.1787 49.0195 67.8481 49.0195C67.4581 49.0195 67.1105 48.9496 66.8074 48.8117C66.5043 48.6739 66.2415 48.483 66.0232 48.2413L66.0296 48.2434Z" fill="#373330"/>
<path d="M74.5304 45.2703H71.2156V44.7444H74.5304V45.2703ZM73.174 48.9262H72.572V45.2109H73.174V48.9262Z" fill="#373330"/>
<path d="M78.1736 49.0218C77.8536 49.0218 77.5611 48.9666 77.2941 48.8585C77.027 48.7503 76.7939 48.5955 76.5946 48.4004C76.3954 48.2053 76.2428 47.9721 76.1347 47.7049C76.0266 47.4377 75.9736 47.1471 75.9736 46.8354C75.9736 46.5237 76.0266 46.2353 76.1347 45.9702C76.2428 45.7051 76.3954 45.474 76.5946 45.2768C76.7939 45.0796 77.027 44.9269 77.2941 44.8166C77.5611 44.7085 77.8536 44.6533 78.1736 44.6533C78.4937 44.6533 78.7798 44.7085 79.0469 44.8166C79.3139 44.9269 79.5471 45.0796 79.7463 45.2768C79.9455 45.474 80.0981 45.7051 80.2083 45.9702C80.3185 46.2353 80.3715 46.5237 80.3715 46.8354C80.3715 47.1471 80.3164 47.4377 80.2083 47.7049C80.1002 47.9721 79.9455 48.2032 79.7463 48.4004C79.5471 48.5976 79.3139 48.7503 79.0469 48.8585C78.7798 48.9687 78.4894 49.0218 78.1736 49.0218ZM78.1736 48.4768C78.481 48.4768 78.7523 48.4068 78.9854 48.2668C79.2185 48.1269 79.4029 47.9318 79.5386 47.6858C79.6742 47.4377 79.7399 47.1535 79.7399 46.8354C79.7399 46.5173 79.6721 46.2332 79.5386 45.9872C79.4051 45.7412 79.2207 45.5482 78.9854 45.4083C78.7523 45.2683 78.481 45.1983 78.1736 45.1983C77.8663 45.1983 77.5993 45.2683 77.3619 45.4083C77.1245 45.5482 76.938 45.7412 76.8066 45.9872C76.6731 46.2332 76.6074 46.5152 76.6074 46.8354C76.6074 47.1556 76.6731 47.4398 76.8066 47.6858C76.938 47.9339 77.1245 48.1269 77.3619 48.2668C77.5993 48.4068 77.8706 48.4768 78.1736 48.4768Z" fill="#373330"/>
<path d="M82.8921 48.9262H82.3008V44.7444H82.9493L85.3634 48.3176H85.1769V44.7444H85.7682V48.9262H85.1197L82.6992 45.3509H82.8921V48.9262Z" fill="#373330"/>
<path d="M90.6911 48.9262H87.8489V44.7444H90.6911V45.2661H88.4529V48.4067H90.6911V48.9283V48.9262ZM90.5788 47.0558H88.3915V46.5363H90.5788V47.0558Z" fill="#373330"/>
<path d="M92.3271 48.2434L92.7488 47.8341C92.8612 47.9677 92.9905 48.0822 93.1367 48.1819C93.283 48.2816 93.4419 48.3558 93.6136 48.4067C93.7853 48.4576 93.9654 48.483 94.1583 48.483C94.3681 48.483 94.5525 48.4533 94.7115 48.3961C94.8704 48.3388 94.9934 48.254 95.0824 48.1437C95.1714 48.0356 95.218 47.9084 95.218 47.7642C95.218 47.5733 95.1333 47.4227 94.9658 47.3103C94.7984 47.198 94.5059 47.1131 94.0884 47.0495C93.7111 46.9944 93.4059 46.918 93.1727 46.8162C92.9417 46.7145 92.77 46.5893 92.6641 46.4388C92.556 46.2882 92.503 46.108 92.503 45.898C92.503 45.652 92.5729 45.4357 92.7107 45.2491C92.8485 45.0625 93.0371 44.9162 93.2787 44.8102C93.5182 44.7041 93.7937 44.6511 94.1053 44.6511C94.4677 44.6511 94.7878 44.7211 95.0633 44.8589C95.3388 44.9968 95.5826 45.1855 95.7882 45.423L95.3664 45.8323C95.2096 45.633 95.0315 45.476 94.8281 45.3594C94.6246 45.2428 94.3851 45.1834 94.1095 45.1834C93.834 45.1834 93.586 45.2449 93.4016 45.37C93.2173 45.4951 93.1261 45.6626 93.1261 45.8726C93.1261 45.9829 93.16 46.074 93.2278 46.1504C93.2957 46.2267 93.408 46.2903 93.567 46.3434C93.7259 46.3964 93.9336 46.443 94.1964 46.4876C94.5864 46.5469 94.9001 46.6296 95.1417 46.7357C95.3812 46.8438 95.5571 46.9795 95.6674 47.1449C95.7776 47.3103 95.8348 47.5097 95.8348 47.7387C95.8348 47.9953 95.7627 48.2201 95.6207 48.4109C95.4787 48.6018 95.2816 48.7502 95.0273 48.8584C94.7729 48.9665 94.4805 49.0195 94.1498 49.0195C93.7598 49.0195 93.4122 48.9496 93.1092 48.8117C92.8061 48.6739 92.5433 48.483 92.325 48.2413L92.3271 48.2434Z" fill="#373330"/>
<path d="M24.2692 37.7847C24.7185 37.6978 25.011 37.5324 25.1467 37.2949C25.2823 37.0552 25.3607 36.752 25.3819 36.3809V19.1341C25.3586 18.763 25.2802 18.4597 25.1467 18.2201C25.011 17.9826 24.7185 17.8193 24.2692 17.7303L24.1335 17.3867H40.2669V19.5603C39.9299 19.4013 39.5421 19.255 39.1012 19.1235C38.6604 18.992 38.139 18.8754 37.5307 18.7778C36.9224 18.6824 36.1976 18.6103 35.354 18.5658C34.5105 18.5212 33.5143 18.5 32.3677 18.5H27.9126V27.3768L38.6116 26.9803V28.5432L27.9126 28.3035V37.0213H32.3677C33.5164 37.0213 34.5105 37.0001 35.354 36.9556C36.1976 36.911 36.9245 36.8411 37.5307 36.7435C38.139 36.646 38.6604 36.5315 39.1012 36.3979C39.54 36.2643 39.9278 36.1201 40.2669 35.961V38.1601L24.1335 38.1346L24.2692 37.789V37.7847Z" fill="#373330"/>
<path d="M91.0168 38.1431H85.9873L86.123 37.7974C86.5702 37.7105 86.8626 37.5472 87.0004 37.3076C87.1339 37.0679 87.2124 36.7647 87.2357 36.3915V21.2674C87.2357 20.8602 87.2272 17.533 87.2208 17.1768H89.7663V36.3915C89.7896 36.7647 89.8681 37.0679 90.0058 37.3076C90.1393 37.5472 90.4318 37.7105 90.8833 37.7974L91.0168 38.1431Z" fill="#373330"/>
<path d="M7.03556 28.9226L4.36927 31.6773V36.3935C4.39258 36.7646 4.471 37.0679 4.60665 37.3075C4.74229 37.545 5.03478 37.7104 5.48411 37.7973L5.61975 38.143H0.588135L0.723781 37.7973C1.17311 37.7104 1.46559 37.545 1.60124 37.3075C1.73689 37.0679 1.81531 36.7646 1.8365 36.3935V21.2652C1.8365 20.47 1.81319 19.768 1.76868 19.1594C1.72417 18.5508 1.57793 18.0949 1.32995 17.7938L4.36715 17.3972V29.8494L11.355 22.5906C12.3448 21.5833 13.076 20.629 13.5487 19.7299C14.0213 18.8286 14.3244 18.0525 14.4601 17.3972H18.2073L8.65483 27.2537L19.1187 36.9767C19.4323 37.2587 19.6973 37.458 19.9113 37.5726C20.1254 37.6871 20.3437 37.7634 20.5705 37.7973L20.7061 38.143H16.9589L7.03556 28.9226Z" fill="#373330"/>
<path d="M51.021 28.9226L48.3547 31.6773V36.3935C48.378 36.7646 48.4564 37.0679 48.5921 37.3075C48.7277 37.545 49.0202 37.7104 49.4695 37.7973L49.6052 38.143H44.5757L44.7113 37.7973C45.1607 37.7104 45.4531 37.545 45.5888 37.3075C45.7244 37.0679 45.8029 36.7646 45.8241 36.3935V21.2652C45.8241 20.47 45.8007 19.768 45.7562 19.1594C45.7117 18.5508 45.5655 18.0949 45.3175 17.7938L48.3547 17.3972V29.8494L55.3426 22.5906C56.3324 21.5833 57.0636 20.629 57.5362 19.7299C58.0089 18.8286 58.312 18.0525 58.4476 17.3972H62.1948L52.6424 27.2537L63.1062 36.9767C63.4199 37.2587 63.6848 37.458 63.8989 37.5726C64.1129 37.6871 64.3313 37.7634 64.558 37.7973L64.6937 38.143H60.9465L51.0231 28.9226H51.021Z" fill="#373330"/>
<path d="M101.686 28.9229L99.02 31.6776V36.3938C99.0433 36.7649 99.1217 37.0681 99.2574 37.3077C99.393 37.5452 99.6855 37.7106 100.135 37.7976L100.27 38.1432H95.241L95.3766 37.7976C95.8259 37.7106 96.1184 37.5452 96.2541 37.3077C96.3897 37.0681 96.4681 36.7649 96.4893 36.3938V21.2654C96.4893 20.4702 96.466 19.7683 96.4215 19.1597C96.377 18.5511 96.2308 18.0951 95.9828 17.794L99.02 17.3975V29.8496L106.008 22.5908C106.998 21.5835 107.729 20.6292 108.202 19.7301C108.674 18.8289 108.977 18.0527 109.113 17.3975H112.86L103.308 27.254L113.771 36.9769C114.085 37.259 114.35 37.4583 114.564 37.5728C114.778 37.6873 114.997 37.7637 115.223 37.7976L115.359 38.1432H111.612L101.688 28.9229H101.686Z" fill="#373330"/>
<path d="M67.8978 38.141L68.0334 37.7954C68.4828 37.7084 68.7753 37.5452 68.9109 37.3055C69.0465 37.0659 69.125 36.7627 69.1462 36.3916V21.2632C69.1462 20.468 69.1228 19.7661 69.0783 19.1575C69.0338 18.5489 68.8876 18.0929 68.6396 17.7918L71.6768 17.3953V37.0277H74.8836C76.0302 37.0277 77.0263 37.0044 77.8699 36.962C78.7134 36.9175 79.4383 36.8475 80.0466 36.7499C80.6549 36.6524 81.1763 36.5379 81.615 36.4064C82.0537 36.2728 82.4416 36.1286 82.7786 35.9696V38.1432H67.8936L67.8978 38.141Z" fill="#373330"/>
<path d="M91.3246 15.8726C93.0965 14.5155 96.1231 14.2164 101.496 13.8899C96.1252 13.5633 93.0986 13.2664 91.3246 11.9071C91.9371 10.8405 93.0032 9.58507 94.5271 7.86314C92.8061 9.38997 91.5514 10.4545 90.4853 11.0674C89.1288 9.29455 88.83 6.26634 88.5036 0.890625C88.1772 6.26421 87.8804 9.29242 86.5219 11.0674C85.4558 10.4545 84.2011 9.38785 82.48 7.86314C84.0061 9.58507 85.07 10.8405 85.6826 11.9071C83.9107 13.2643 80.8841 13.5633 75.5112 13.8899C80.882 14.2164 83.9086 14.5133 85.6826 15.8726C85.07 16.9393 84.0039 18.1947 82.48 19.9166C84.2011 18.3898 85.4558 17.3252 86.5219 16.7124C87.8783 18.4852 88.1772 21.5134 88.5036 26.8891C88.83 21.5155 89.1267 18.4873 90.4853 16.7124C91.5514 17.3252 92.8061 18.3919 94.5271 19.9166C93.0011 18.1947 91.9371 16.9393 91.3246 15.8726Z" fill="url(#paint0_linear_2838_23852)"/>
<defs>
<linearGradient id="paint0_linear_2838_23852" x1="75.5133" y1="13.8899" x2="101.494" y2="13.8899" gradientUnits="userSpaceOnUse">
<stop stop-color="#DD8B47"/>
<stop offset="0.52" stop-color="#B35A1E"/>
<stop offset="1" stop-color="#995430"/>
</linearGradient>
</defs>
</svg>
